<svg xmlns="http://www.w3.org/2000/svg" viewBox="0 0 649.34 648.85"><defs><style>.cls-1{fill:#0c699a;}.cls-2{fill:#005780;}.cls-3{fill:#005276;}.cls-4{fill:#448cb2;}.cls-5{fill:#2d81aa;}.cls-6{fill:#004462;}.cls-7{fill:#fff;}</style></defs><g id="katman_2" data-name="katman 2"><g id="katman_1-2" data-name="katman 1"><path class="cls-1" d="M224.2,584.42a19.66,19.66,0,0,1-2.28-.62,277.74,277.74,0,0,1-40-19.63c-.82-.49-1.63-1-2.46-1.49-2.09-1.2-2.1-1.21-4.12.46-1.11.92-2.18,1.88-3.26,2.82l-28.25,24.53c-.73.63-1.44,1.27-2.19,1.87a1.47,1.47,0,0,1-2.13-.13c-.35-.33-.73-.63-1.09-.94q-26.35-23.06-52.71-46.11c-3.39-3-3.49-2.37-.76-6.49q10.83-16.41,21.63-32.83c.62-.93,1.21-1.89,1.84-2.81a1.68,1.68,0,0,0-.09-2.18c-.49-.63-1-1.26-1.49-1.88a277.86,277.86,0,0,1-26.4-39.38c-.23-.42-.45-.84-.69-1.26-1.28-2.18-1.29-2.24-3.72-1.79-6.28,1.17-12.55,2.39-18.83,3.59-8.16,1.57-16.31,3.16-24.47,4.71-1.6.31-1.95.12-2.49-1.42Q26.67,453,23.13,442.6,15.3,419.71,7.49,396.82c-.31-.91-.64-1.81-.91-2.72-.46-1.55-.31-2,1-2.73,1-.55,2-1.05,3-1.55l33-16.53c1.29-.64,2.59-1.25,3.85-1.94,1.78-1,1.82-1.07,1.56-3-.47-3.32-1-6.64-1.4-10a268.74,268.74,0,0,1-2-39.7c0-.48,0-1,0-1.44a2.14,2.14,0,0,0-1.69-2.5c-.92-.24-1.81-.62-2.72-.94L4.5,301.22c-1.2-.42-2.41-.84-3.58-1.35a1.36,1.36,0,0,1-.9-1.51c.21-1.26.43-2.52.68-3.77l13.41-67.66a15.3,15.3,0,0,1,.49-1.85,1.63,1.63,0,0,1,1.79-1.23c1,.05,1.92.08,2.88.14,12.92.81,25.85,1.68,38.78,2.4,6.26.35,4.84.87,7.06-4.65a288.7,288.7,0,0,1,20.41-41.17c2.16-3.6,2.39-3.08-.59-6.49Q72,159.26,59.12,144.41c-1-1.2-2-2.44-2.92-3.51a4.38,4.38,0,0,1,1.53-2.66q23.21-26.54,46.43-53.05c.53-.6,1.08-1.19,1.62-1.77a1.47,1.47,0,0,1,2.12-.19l2.82,1.83,32,21.1c1.07.71,2.15,1.39,3.21,2.1a1.79,1.79,0,0,0,2.21-.08c.78-.57,1.51-1.19,2.26-1.79a277.45,277.45,0,0,1,39-26.07c.7-.39,1.38-.82,2.09-1.17a2.07,2.07,0,0,0,1.11-2.4c-.13-1-.24-1.9-.43-2.84q-3.88-20-7.8-40c-.09-.47-.23-.93-.33-1.4a1.79,1.79,0,0,1,1.15-2.3c.89-.35,1.8-.65,2.71-1l64.87-22.1q1.36-.47,2.73-.9a1.55,1.55,0,0,1,2,.84c.61,1.12,1.18,2.26,1.75,3.41q8.82,17.55,17.65,35.1c1.6,3.17,1,3.71,5.8,3a268.34,268.34,0,0,1,45.39-3.25c1.12,0,2.24,0,3.36,0,2.24,0,2.34-.06,3.09-2.21,2.58-7.39,5.11-14.79,7.66-22.18,2.14-6.19,4.26-12.38,6.43-18.56.91-2.58,1.06-2.7,3.84-2.18,5.65,1.05,11.28,2.22,16.92,3.34l50.78,10c.63.13,1.27.2,1.89.34,3.32.74,3.27.74,3.08,4.07-.8,13.56-1.61,27.12-2.34,40.68-.27,5-.65,4.18,4.07,6.06a281.11,281.11,0,0,1,41.65,20.56c.82.49,1.67.94,2.49,1.43a1.69,1.69,0,0,0,2.17-.3q3.45-3,6.89-6,12.66-11,25.34-22c1-.84,1.95-1.63,2.83-2.36,1.48-.09,2.12,1,2.92,1.67Q538,81.09,564.67,104.49c.48.42,1,.83,1.41,1.3a1.3,1.3,0,0,1,.12,1.73c-.7,1.07-1.38,2.15-2.09,3.21l-21.1,32c-.62.93-1.22,1.87-1.84,2.8a2.07,2.07,0,0,0,.13,2.64l2.08,2.64a276.88,276.88,0,0,1,25,37.4c.47.84.91,1.69,1.4,2.51,1.16,2,1.17,2,3.39,1.59,3.14-.57,6.27-1.22,9.42-1.78,1.09-.2,2.2-.25,3.31-.37.81,1.43.23,2.82-.22,4.15-5.57,16.62-12.25,32.81-19.34,48.84a4.49,4.49,0,0,1-1.17,1.5,1.61,1.61,0,0,1-1.41.24,6.63,6.63,0,0,1-1.82-2.35c-6.19-16.66-13.28-32.87-22.63-48.06A252.39,252.39,0,0,0,433.65,98.59a244.08,244.08,0,0,0-81.17-23.36c-11-1.18-21.93-2.25-33-1.82-33.22,1.29-65.24,7.84-95.79,21.37a245.94,245.94,0,0,0-65.15,41.69A252.16,252.16,0,0,0,77.19,284.32c-2.63,16.1-4.11,32.34-3.32,48.65,1.63,33.53,9.06,65.68,23.18,96.28a245.89,245.89,0,0,0,52.87,74.67,248.65,248.65,0,0,0,91.88,56.74c4.86,1.69,10.4,2,14.3,6-.31,1.22-1.34,1.75-2.3,2.28C244,574.31,234.3,579.71,224.2,584.42Z"/><path class="cls-2" d="M224.2,584.42c.42-1.39,1.65-1.86,2.78-2.45q10.83-5.62,21.65-11.29c1.13-.59,2.19-1.31,3.27-2a8.52,8.52,0,0,1,3.93-1.65,3.66,3.66,0,0,1,1.33-.82c6.76.28,13.12,2.6,19.7,3.82C329.48,579.81,380.27,574.27,429,552c49.75-22.73,87.74-58.41,114.58-105.82a241.39,241.39,0,0,0,30.66-99c2.8-32.17,0-63.77-9.35-94.73a33.9,33.9,0,0,1-1.21-4.63,4.4,4.4,0,0,1,.25-3,4.26,4.26,0,0,0,1.58-2.33c4.35-10.55,8.76-21.07,13-31.68,2.34-5.89,4.32-11.92,6.47-17.89l1-2.68c3.44-1.41,7.14-1.63,10.73-2.37,6.72-1.39,13.48-2.63,20.21-4a1.72,1.72,0,0,1,2.23,1.19c.34.9.63,1.81.94,2.71L642.35,253c.26.76.45,1.54.72,2.28a1.42,1.42,0,0,1-.72,2c-1.13.6-2.26,1.2-3.4,1.77l-34.7,17.39c-.86.43-1.72.84-2.57,1.28a2.11,2.11,0,0,0-1.25,2.34c.42,3,.83,6,1.24,9A266.15,266.15,0,0,1,604,328.24c0,.64,0,1.28,0,1.92,0,3.3,0,3.34,3.07,4.4,12.53,4.32,25.09,8.56,37.6,12.95,4.87,1.71,5.36.52,4.07,6.9-4.4,21.74-8.53,43.55-12.94,65.29-1.25,6.19.16,5.46-6.6,5.1-9.42-.5-18.83-1.1-28.25-1.68-3.51-.22-7-.6-10.52-.72-4.56-.16-3.87-.72-5.54,3.41-1.32,3.26-2.63,6.52-4,9.74a283.64,283.64,0,0,1-16.39,31.94c-.81,1.36-1.57,2.74-2.45,4.28L593.44,508c-.41,1.65-1.58,2.57-2.51,3.64q-22.74,26-45.49,52l-.63.72c-2,2.17-2,2.2-4.28.71-3.09-2-6.14-4.05-9.21-6.07q-13.41-8.83-26.83-17.66c-2.12-1.39-2.19-1.39-4.16.19a279.43,279.43,0,0,1-41.8,27.92c-2.07,1.13-2.08,1.25-1.67,3.37q3.9,20,7.83,39.95c0,.16.08.31.11.47,1,6.09,1.4,4.77-3.89,6.59q-31.71,10.89-63.48,21.61c-1.51.52-3,1-4.47,1.46-1.49-1.1-1.91-2.71-2.61-4.11-6-11.82-11.9-23.69-17.86-35.52-1.8-3.56-1.26-3.58-5.78-2.9a260.74,260.74,0,0,1-38.67,3.2c-3.52,0-7,0-10.56,0a2.21,2.21,0,0,0-2.42,1.77c-.78,2.43-1.69,4.82-2.52,7.23q-5.44,15.85-10.89,31.7c-.41,1.21-.87,2.41-1.34,3.59a1.59,1.59,0,0,1-1.88,1.08c-2.68-.46-5.36-.91-8-1.44l-62.05-12.27c-.62-.13-1.25-.25-1.87-.41-2.22-.57-2.36-.71-2.32-2.84,0-1.76.11-3.52.22-5.27.78-12.59,1.52-25.19,2.44-37.78A3.86,3.86,0,0,0,224.2,584.42Z"/><path class="cls-3" d="M256.86,567.05h-1c-.79-1.24-2.22-1.22-3.38-1.6-8.33-2.76-16.67-5.46-24.76-8.89a242.2,242.2,0,0,1-25-12.07c-5.55-3.16-11.06-6.38-16.38-9.88A181.21,181.21,0,0,1,170,523c-2.44-2-5-4-7.48-5.93-.37-.3-.79-.54-1.15-.85a228.44,228.44,0,0,1-21.74-20.91c-4.45-4.94-8.75-10.08-13-15.28-6.14-7.59-11.28-15.83-16.73-23.87-2-3-3.71-6.32-5.51-9.51-1.65-2.92-3.43-5.78-4.84-8.81-3-6.5-5.94-13.06-8.71-19.68a128.52,128.52,0,0,1-5.34-14.32c-2.21-7.8-4.87-15.46-6.5-23.45-1.1-5.44-2.29-10.88-3.31-16.33a100.88,100.88,0,0,1-1.24-10.41c-.24-3-1.25-5.9-1-9a22.45,22.45,0,0,0-.79-8.53,11.58,11.58,0,0,1-.11-3.34c0-5,0-9.91,0-14.87,0-2.7-.25-5.43.75-8.06a5.53,5.53,0,0,0,.15-2.37c-.49-5,.51-9.89,1.16-14.74q1.56-11.53,4-23c1.83-8.42,4.44-16.6,6.87-24.83a165,165,0,0,1,5.86-15.66c2.24-5.46,4.43-11,7.17-16.17,3.78-7.2,7.59-14.38,11.86-21.31,4.94-8,10.44-15.62,16.11-23.11,2.39-3.16,5.14-6.1,7.64-9.17,6-7.35,13.07-13.57,19.6-20.35,3.87-4,8.37-7.35,12.63-10.93A231.91,231.91,0,0,1,190.49,111c3.35-2.15,6.83-4.1,10.3-6.07,3.19-1.81,6.39-3.6,9.66-5.27a247.73,247.73,0,0,1,39.41-16,201.07,201.07,0,0,1,27.32-6.75c5.16-.84,10.29-2.16,15.48-2.59,4.75-.4,9.43-1.65,14.27-1.24a14.23,14.23,0,0,0,6.16-.58,10.17,10.17,0,0,1,3.32-.3c5.44,0,10.91-.4,16.31.1,5.08.46,10.2.39,15.24,1,14.2,1.65,28.35,3.82,42.16,7.69a258.66,258.66,0,0,1,35.14,12.43q7.89,3.49,15.55,7.44a255,255,0,0,1,26.64,16c7.14,4.83,13.74,10.33,20.66,15.42a4.78,4.78,0,0,1,.72.63c6.26,6.39,13.64,11.63,19.39,18.5,4.69,5.61,9.79,10.86,14.25,16.7s9.1,11.89,13.16,18.17c3,4.69,5.68,9.6,8.62,14.34a138.51,138.51,0,0,1,8.23,15.68c4,8.7,7.94,17.4,10.53,26.65.58.51.33,1.44,1,1.91h0c.32.65.63,1.3.94,1.95-1.79,2.8-2.89,5.93-4.26,8.93-.74,1.6-1.09,3.81-3.66,3.68-1.71-1-1.88-2.89-2.38-4.54C542,213.68,520.16,178.21,488.69,149a236.93,236.93,0,0,0-93.95-54.1,252.64,252.64,0,0,0-58.89-10.16c-37.33-2.13-72.85,5-106.94,19.64-48,20.65-84.79,54.24-111.39,99-17.4,29.25-27.52,61-31.39,94.86-5,43.47,2,85,19.9,124.76,21.72,48.2,56,85,102.17,110.85a245,245,0,0,0,55.44,22.43,14,14,0,0,1,4.47,1.65,1.87,1.87,0,0,1,.72,1.22c-1.69,4.28-6.38,4.45-9.47,6.82C258.67,566.42,257.59,566.43,256.86,567.05Z"/><path class="cls-4" d="M246.29,18.42c-3,2.81-6.74,4.75-10,7.34A156.46,156.46,0,0,0,224.8,36.51a91.19,91.19,0,0,0-18.75,26.88c-.8,1.73-1.37,3.56-2,5.36a4.87,4.87,0,0,1-1.49,2.6c-1.76-3.43-2.12-7.21-3.09-10.78-1.29-4.74-2.2-9.59-3.28-14.39-.7-3.09-1.43-6.18-2.12-9.28-.44-2-.24-2.43,1.8-3.12q9.27-3.13,18.58-6.2l30.84-10.15C246.29,17.1,246.52,17.53,246.29,18.42Z"/><path class="cls-5" d="M246.29,18.42l-1-1a2.63,2.63,0,0,1,2-1.05c.71-.12,1.32-.95,2.23-.28C249,17.61,247.37,17.68,246.29,18.42Z"/><path class="cls-2" d="M564,244.77a1.92,1.92,0,0,1-1-1.91A2,2,0,0,1,564,244.77Z"/><path class="cls-6" d="M557.27,259.18c1.48-1.5,2.11-3.45,2.89-5.34.85-2,1.86-4,2.81-6a2.12,2.12,0,0,1,1.94-1.13c.2,3.39,1.58,6.49,2.54,9.67,2.2,7.33,3.65,14.81,5.12,22.3,1.06,5.44,1.9,10.93,2.79,16.41a26.66,26.66,0,0,1,.12,3.35,11.92,11.92,0,0,0,.14,3.34c1.14,3.44.79,6.95.81,10.45q.06,12.47,0,24.94c0,2.86.31,5.75-.79,8.53a3.91,3.91,0,0,0-.14,1.42c0,6.87-1.72,13.52-2.62,20.28-1.06,7.92-3.18,15.57-5.15,23.26a175.88,175.88,0,0,1-6.05,19.12c-2.15,5.66-4.42,11.27-6.75,16.85-1.72,4.12-3.94,8-5.92,12.05a239.5,239.5,0,0,1-24.42,38.78c-2.89,3.81-6.05,7.38-9.07,11.08-7,8.57-15.26,15.89-23,23.69a124.69,124.69,0,0,1-12.07,10.11A219.6,219.6,0,0,1,461,536.2c-5.15,3.17-10.24,6.46-15.69,9.15-2.57,1.27-4.95,2.92-7.53,4.18-4,2-8.06,3.86-12.18,5.59-8.24,3.44-16.56,6.66-25.1,9.32A195.48,195.48,0,0,1,374.57,571c-4.38.72-8.69,1.88-13.08,2.57-3.76.6-7.58.81-11.38,1.18a11,11,0,0,0-2.38.1c-3.75,1.26-7.6.83-11.42.85-9.11,0-18.23,0-27.35,0-1.91,0-3.83.14-5.67-.64a4.05,4.05,0,0,0-1.89-.27c-4,.45-7.88-.94-11.87-1.16-4.24-.24-8.44-1.41-12.64-2.28-6.69-1.38-13.36-2.86-20-4.29,1.54-2.3,4-3.31,6.31-4.6,1.74-1,3.76-1.51,5.18-3.06,2-1.72,4.21-1.22,6.38-.71,21,4.9,42.4,6.13,63.84,5a232.82,232.82,0,0,0,68.29-14.1A239.62,239.62,0,0,0,550,406.58a232.59,232.59,0,0,0,13.42-57.25,238.32,238.32,0,0,0-5.68-82.72c-.16-.62-.29-1.24-.41-1.87-.17-.88-.26-1.78-.47-2.65a7.57,7.57,0,0,1-.25-1.24A1.93,1.93,0,0,1,557.27,259.18Z"/><path class="cls-1" d="M557.27,259.18c0,.64,0,1.28,0,1.91-1.23,6.19-5,11.24-7.64,16.78-2.11,4.42-4.72,8.61-6.93,13-.91,1.78-1.72,3.85-4.25,4-2.93-3.42-2.25-7.82-3.1-11.77-2.18-10.29-1.69-8.86-10.15-5.92-35.15,12.22-70.5,23.86-105.66,36.05-3.6,1.25-5.2,3.16-5,7a102.74,102.74,0,0,1,0,10.53c-.08,1.66.27,3.65-2,4.41-2.75-3.37-1.29-7.35-1.41-11-.3-9,1.24-8.39-8.17-5.79-7.69,2.13-11.77,5.58-12.5,14.41-1.38,16.75-9.52,30.64-22.22,41.65-3.16,2.75-3.91,5.36-2.26,9.15,2.21,5.1,2.88,10.83,6.23,15.48.38,7,3.41,13.19,5.7,19.58,5.76,16,10.47,32.37,16.5,48.28a6.31,6.31,0,0,1,.4,3.74c-2.77,4.88-7.63,7.63-11.74,11.07-6.35,5.3-12.51,10.84-19.32,15.57-1.92-1-2.16-3.07-2.76-4.83-8.36-24.25-16.41-48.6-24.91-72.81-.91-2.59-1.77-5.12-4.29-6.63,1.37-7.51-2.94-13.66-5-20.35-.53-1.77-2.49-1.7-4.11-1.79a69.76,69.76,0,0,1-41.22-16,43.09,43.09,0,0,1-7.95-8.24c-1.64-2.28-3.55-2.81-6.22-1.81-6,2.24-12.17,3.86-18,6.38-38.53,12.72-76.78,26.3-115.29,39.08-4.84,1.6-4.91,2-2.63,6.86A205.11,205.11,0,0,0,175.89,479c34.19,32.39,74.78,51.86,121.6,58.07,1.74.23,3.56.2,4.63,2,.22,2.07-1.56,2.57-2.8,3.4-7.89,5.26-16.19,9.89-24.3,14.8-2,1.21-4.2,2.23-6.69,1.23-4.76-.6-9.28-2.22-13.82-3.63-6.24-1.93-12.45-4-18.51-6.44a223.1,223.1,0,0,1-22.23-10.07,264.68,264.68,0,0,1-35.88-22.77,270.66,270.66,0,0,1-32.43-29.68c-3.61-3.79-6.8-8-10.09-12.09-5-6.21-9.54-12.73-13.88-19.41-3-4.55-5.62-9.26-8.22-14-1.29-2.38-2.73-4.68-4-7.08-2.44-4.67-4.21-9.65-6.4-14.41A197.81,197.81,0,0,1,94.41,396a221.56,221.56,0,0,1-6.57-25.86c-1.26-6.55-2.09-13.15-3-19.75-.62-4.47-.13-9-.94-13.31-1.13-6.05-.55-12.08-.76-18.12a13.23,13.23,0,0,1,.6-5.68,4.26,4.26,0,0,0,.27-1.88c-.29-5.28.55-10.47,1-15.7.25-2.85.74-5.68,1.18-8.49a245.4,245.4,0,0,1,12.37-47,140.07,140.07,0,0,1,6.26-15c1.8-3.55,3.19-7.31,5-10.83a290,290,0,0,1,22.66-35.95c7.94-10.9,17.51-20.24,27-29.73a203.81,203.81,0,0,1,25.31-21,190.88,190.88,0,0,1,16-10.47c8-4.66,16-9.35,24.63-12.73,4.76-1.85,9.31-4.22,14.11-5.92,9-3.19,18-6.4,27.38-8.5,7-1.56,13.94-3.25,21-4.27,3.28-.48,6.64-.87,9.91-1.36,5.26-.8,10.57-.16,15.71-1,5-.82,9.86-.53,14.78-.72a8.25,8.25,0,0,1,2.86.12c3.28,1.09,6.64.79,10,.79a90.54,90.54,0,0,1,15.14,1.68c2.5.43,5,.62,7.55,1a201.63,201.63,0,0,1,21,4.37A242.58,242.58,0,0,1,420.49,103q9.45,4.13,18.54,9a228.13,228.13,0,0,1,31.76,20.36c4.65,3.58,9.14,7.43,13.64,11.22,6.14,5.16,11.61,10.95,17.23,16.6,3.24,3.25,5.89,7.09,9,10.51A123.08,123.08,0,0,1,519,181.07a269.09,269.09,0,0,1,15.61,24c2.94,5.13,5.76,10.32,8.22,15.68,5.46,11.88,10.45,23.95,13.71,36.65A11.78,11.78,0,0,0,557.27,259.18Z"/><path class="cls-2" d="M268.33,558.47c2,.15,3.72-.8,5.34-1.78q14-8.49,27.94-17.07c.12-.07.18-.26.26-.39,3.36-2.31,7.08-1.36,10.64-1,19.41,1.87,38.45-.73,57.42-4.41,3.57-.69,4.36-2.47,3.15-5.76-3-8.22-6-16.46-8.58-24.84-.6-1.92-1.7-3.87-.3-5.92a5.06,5.06,0,0,1,2.12-3.55c5.93-4.67,12-9.19,17.7-14.13q5-4.32,10.11-8.5c2.67.48,2.67,2.92,3.26,4.74,4.25,13.07,9,26,13.4,39,1.58,4.65,2.16,4.91,6.48,2.8q78.06-38,108.64-119.22a207.29,207.29,0,0,0,13-65.51c.42-10.58-.31-21-1-31.48-.15-2.2-.63-4.48.91-6.46,1.34-2.34,2.75-4.65,4-7,4.43-8.45,8.81-16.92,13.23-25.37a10,10,0,0,1,1.16-1.47h0c.52.54.33,1.42.93,1.93,1.93,8,3.78,16,4.93,24.23.77,5.51,1.27,11,2,16.52,1.46,11.48.36,22.94.75,34.4a17.79,17.79,0,0,1-.39,3.31,19.84,19.84,0,0,0-.5,2.8c0,7.36-1.66,14.48-2.75,21.69-2.57,17.1-7.89,33.41-14.12,49.44a212.45,212.45,0,0,1-12.68,26.28,203.9,203.9,0,0,1-18.32,27.91c-3.26,4.11-6.44,8.28-9.66,12.42a3.59,3.59,0,0,1-.32.36,137.25,137.25,0,0,0-9.36,10.21,23.58,23.58,0,0,1-6.72,6.07,13.09,13.09,0,0,0-2.44,2.28c-7.44,7.47-15.76,13.85-24.26,20.05a185.45,185.45,0,0,1-18.89,12.09c-6.09,3.42-12,7.3-18.69,9.61-3,1-5.82,2.6-8.73,3.89a217.17,217.17,0,0,1-37.61,12.34c-6,1.44-12.09,2.62-18.23,3.48-5.19.73-10.39,1.28-15.57,2-12.44,1.61-24.88.35-37.3.78a9.66,9.66,0,0,1-3.3-.42,14.32,14.32,0,0,0-4.73-.5c-4,0-7.89-.84-11.8-1.49-5.63-.93-11.21-2.19-16.83-3.2a28,28,0,0,0-4.3-.12C268.34,559.09,268.34,558.78,268.33,558.47Z"/><path class="cls-3" d="M558.2,263a1.93,1.93,0,0,1-.93-1.93A2,2,0,0,1,558.2,263Z"/><path class="cls-7" d="M364.2,497.28c.42,1.53.76,3.08,1.26,4.58q4.44,13.11,9,26.19c.46,1.36.95,2.7,1.36,4.07a1.47,1.47,0,0,1-1.28,2.09c-4.83,1-9.64,2.15-14.51,2.94A214.37,214.37,0,0,1,318.56,540c-4.29-.14-8.58-.54-12.88-.78-1.26-.07-2.54,0-3.81,0-3.18-1.25-6.6-1.09-9.9-1.62q-70.68-11.37-121.17-62.05a210.28,210.28,0,0,1-42.22-61.24c-1.32-2.89-1.31-3,1.7-4q28.78-9.84,57.58-19.63,27.88-9.51,55.78-19c1.78-.6,3.5-1.66,5.53-1.28,1.72.47,2.42,2,3.35,3.26,15.06,20.55,34.82,33.45,60.26,37.23,4.31.64,8.61.28,12.92.47,2,.08,4.19-.46,5.95,1.11.63.05,1.27.14,1.9.13a1.89,1.89,0,0,1,2.07,1.56c.29,1.07.7,2.11,1.06,3.17q13.4,39.35,26.8,78.7A7.07,7.07,0,0,0,364.2,497.28Z"/><path class="cls-7" d="M315.18,236.43c-1.67-1.08-1.75-3-2.3-4.61q-11.72-34.2-23.34-68.43-7.41-21.75-14.8-43.52c-.35-1.06-.75-2.11-1.07-3.17s0-1.83,1.16-2.09c4.69-1,9.35-2.12,14.08-2.89a210.49,210.49,0,0,1,36.75-3c49.27.68,93.5,15.95,132.39,46.21a210.9,210.9,0,0,1,62.08,78.05c.47,1,1,2,1.4,3.05a1.34,1.34,0,0,1-.75,1.95c-1,.41-2.1.75-3.16,1.11q-56,19.08-112,38.14c-1.76.6-3.49,1.76-5.53,1-3.81-2.13-5.23-6.31-7.92-9.41-17.36-20-39-30.84-65.69-31.41C322.7,237.29,318.81,238.28,315.18,236.43Z"/><path class="cls-7" d="M236.78,334c-1.19,1.5-3,1.67-4.66,2.22l-88.86,30.3q-12,4.1-24,8.16c-1.2.4-2.34,1-3.74.82-1.07-1.28-1.11-2.94-1.45-4.45a208.88,208.88,0,0,1-4.77-59.5c2.77-42.17,16.5-80.47,41.47-114.62a212.39,212.39,0,0,1,82-67.57c5.57-2.63,4.88-2.72,6.75,2.77q19,55.74,38,111.48c.41,1.21.8,2.42,1.22,3.63.31.91-.4,1.47-.72,2.16-.32,1.8-1.86,2.51-3.14,3.42-16.74,11.9-28.4,27.5-34,47.34-2.68,9.54-4.49,19.26-3.18,29.28A5.6,5.6,0,0,1,236.78,334Z"/><path class="cls-7" d="M538.83,295c.12,2.07.07,4.16.37,6.2A144.14,144.14,0,0,1,540.26,316c3.62,84.33-43.86,166.24-123.92,203.61-1.41.66-2.73,1.74-4.48,1.49a14.45,14.45,0,0,1-1.81-4.39q-7.37-21.51-14.74-43c-.3-.89-.34-1.91-1.18-2.55,0-2-1-3.67-1.58-5.46Q382.31,435.42,372,405.22c-.36-1.05-.62-2.14-1.07-3.15-.6-1.34.35-2.05,1-2.92,1.11-3,4.1-3.89,6.31-5.61,17.2-13.43,27.8-30.88,32.27-52.17.44-2.11.09-4.55,2-6.23.91-1.44.78-3.09.79-4.65,0-4.63,0-9.26-.07-13.88,0-2.48-.06-2.58,2.36-3.41,8.29-2.85,16.61-5.65,24.91-8.48q44.4-15.11,88.79-30.21c1.49-.5,2.91-1.28,4.56-1.25a4.51,4.51,0,0,1,1.31,3c1,5.48,2,11,3.08,16.45A22.44,22.44,0,0,0,538.83,295Z"/><path class="cls-7" d="M355.84,324.52a31.14,31.14,0,1,1-30.9-31.21A31,31,0,0,1,355.84,324.52Z"/><path class="cls-3" d="M331.65,412.52c-27.83,2.06-51.36-7.24-70.93-26.89a67.86,67.86,0,0,1-11.55-15.18c.9-1.27,2.31-1.58,3.67-2q8.37-2.82,16.7-5.76a2.13,2.13,0,0,1,2.56.51,17.41,17.41,0,0,1,2.28,2.44c3.08,4.81,7.55,8.13,12,11.46A65,65,0,0,0,312,388.27c4.16.89,8.42,1.75,12.75,1.34,1.89-.17,2.86.67,3.44,2.47,1.82,5.77,3.8,11.48,5.7,17.22.5,1.53.45,1.54-1.52,2.63A5.1,5.1,0,0,0,331.65,412.52Z"/><path class="cls-3" d="M236.78,334c-4-30.47,10.13-64.92,39.9-84a8.1,8.1,0,0,1,1.31-.57,3.38,3.38,0,0,1,2.53,2.6c1.94,5.72,3.84,11.45,5.75,17.18a2.32,2.32,0,0,1-.89,2.94c-4,2.67-7.2,6.29-10.41,9.8A60.31,60.31,0,0,0,264.83,298a68.58,68.58,0,0,0-4.89,16.86,43.83,43.83,0,0,0-.22,8.58,3.94,3.94,0,0,1-3,4.33q-9.51,3.13-19,6.2A3.82,3.82,0,0,1,236.78,334Z"/><path class="cls-3" d="M412.44,335.14c-.15,6.31-1.92,12.29-4,18.16A87.45,87.45,0,0,1,374,398a23.1,23.1,0,0,1-2.08,1.12,2.57,2.57,0,0,1-2.6-1.73c-2-6.19-4.06-12.39-6.12-18.58a1.92,1.92,0,0,1,.76-2.45,66.24,66.24,0,0,0,19-22.38,63.63,63.63,0,0,0,6.47-20.81c.4-3,1-5.95.83-9-.13-2,1-2.89,2.64-3.46,5.4-1.92,10.79-3.83,16.21-5.7a22.42,22.42,0,0,1,3-.59C412.77,321.49,412,328.33,412.44,335.14Z"/><path class="cls-3" d="M315.18,236.43A88.35,88.35,0,0,1,399,276.08a19.87,19.87,0,0,1,1.07,2.11c-1.51,1.56-3.64,1.95-5.53,2.67-4.6,1.76-9.36,3.14-14,4.76a3,3,0,0,1-3.46-.79,15.88,15.88,0,0,1-2.3-2.42c-2.85-4.59-7.13-7.66-11.37-10.76A65.19,65.19,0,0,0,336,259.94a62.06,62.06,0,0,0-9.48-.78c-3.16-.07-4.08.84-5.67-4.2-1.78-5.61-3.88-11.11-5.78-16.68A5.13,5.13,0,0,1,315.18,236.43Z"/></g></g></svg>