<svg id="katman_1" data-name="katman 1" xmlns="http://www.w3.org/2000/svg" viewBox="0 0 581.18 261.53"><defs><style>.cls-1{fill:#4b4c4e;}.cls-2{fill:#4d4e50;}.cls-3{fill:#515254;}.cls-4{fill:#eaeaea;}.cls-5{fill:#80c4dc;}.cls-6{fill:#fdfdfd;}.cls-7{fill:#fcfcfc;}.cls-8{fill:#fbfbfb;}.cls-9{fill:#fbfcfc;}.cls-10{fill:#f8f8f8;}.cls-11{fill:#fafafa;}.cls-12{fill:#797a7b;}.cls-13{fill:#f9f9f9;}.cls-14{fill:#5d5e60;}.cls-15{fill:#f7f7f7;}.cls-16{fill:#f5f5f5;}.cls-17{fill:#d5d5d5;}.cls-18{fill:#f0f0f1;}.cls-19{fill:#e5e5e5;}.cls-20{fill:#f2f2f2;}.cls-21{fill:#777879;}.cls-22{fill:#030303;}.cls-23{fill:#f9f7f8;}.cls-24{fill:#fff;}.cls-25{fill:#f0f0f0;}</style></defs><path class="cls-1" d="M486.82,194.18c-2.58-2.31-1.46-5.37-1.49-8.12,0-2.38-.67-3.21-3.18-3.22-7.69,0-9.62-2.13-9.64-9.84,0-1.75-.05-3.49,0-5.23s-.29-2.76-2.43-2.77-2.79.83-2.71,2.86a82.24,82.24,0,0,1-.05,8.6c-.48,7.55-5,11.75-12.61,11.8-8.36.07-12.31-2.1-14.5-7.79a9.73,9.73,0,0,1-.56-4.78c.42-3.34-.69-4.43-4.23-4.4-18.35.17-36.69,0-55,0q-89.11,0-178.22,0c-3.85,0-4.71,1-4.69,4.75.17,28.65,0,57.31.17,86,0,3.16-.92,3.9-4,3.89q-92.1-.12-184.22,0c-3.33,0-4.12-.89-4.11-4.16q.13-124.09,0-248.2c0-3.42,1-4.07,4.22-4.07q92.1.13,184.22,0c3.2,0,4,.95,3.88,4-.21,5.09,0,10.21.06,15.31,1.27,1.1,2.82.84,4.3.84q60.84,0,121.69,0c4.7,0,4.7,0,4.7-4.78,0-5.74.07-11.47,0-17.2,0-2.11.34-3.12,2.82-3.11q26,.15,52.05,0c2.43,0,2.88.9,2.86,3.07Q386,23,386.1,38.27c0,2.41-.74,3.48-3.18,3.34-1.24-.08-2.49,0-3.74,0H204.31c-1.25,0-2.5.06-3.74,0-2.31-.13-3.64.64-3.28,3.2a8.34,8.34,0,0,1,0,1.12q0,45.8,0,91.58c0,1.17-.58,2.5.57,3.51,26,0,51.92.09,77.88.06,28.08,0,56.17-.2,84.25-.21q37.8,0,75.62.26c2.88,0,4.46-.36,4.05-3.74a6.68,6.68,0,0,1,2-5.47c3.53-3.35,1.9-7.46,2.14-11.28.11-1.69-1.42-1.41-2.49-1.42-3.7,0-5.82-2-6.52-5.49a19.3,19.3,0,0,1,0-8.15c.71-3.08,2.54-5.27,5.94-5.13,2.63.11,3.2-1,3.06-3.33s.08-4.48.05-6.72c0-2.48,1.13-3.73,3.59-3.74,3.87,0,7.74,0,11.61,0,2.24,0,3.45,1.16,3.43,3.49,0,2.49.09,5,0,7.48-.09,1.88.6,2.55,2.51,2.77,5.11.58,6.59,2.34,6.72,7.48a39.67,39.67,0,0,1-.09,5.23c-.41,3.78-2.48,5.94-6.3,6-2.46,0-2.92,1-2.85,3.13.11,3.56-.23,6.91,2.81,10,2.77,2.76,2.1,7,2.09,10.73,0,1.88-.35,3.67,2.69,3.62s2.35-1.81,2.42-3.49c.07-2.1-.36-4.28.48-6.29,1.68-4,5.12-4.78,9-4.55,2.18.13,3.47-.17,3.34-2.94-.45-9.75.42-8.43,8.56-8.36,2.92,0,4.63-.18,4.36-3.9-.24-3.31,6.72-9.5,10.08-9.51,16,0,32,0,47.94-.05,3.19,0,4.48,1.2,4.55,4.39.06,2.91-1.44,6.79.76,8.49,1.84,1.41,5.5.54,8.35.51,2.49,0,3.75,1,3.76,3.52,0,.62,0,1.25,0,1.87,0,5.58,0,5.58,5.43,6,4.51.33,7.27,2.89,7.31,7.35q.18,17.94,0,35.89c-.05,4.85-3.12,7.64-8.37,7.35-3.68-.2-5,.95-4.43,4.53a18,18,0,0,1,0,3.74c-.11,2-1.15,3.21-3.32,3.19-1.62,0-3.24,0-4.86,0-4.84,0-4.84,0-4.6,4.9-2.68,3-5.59,2.54-6.82-1-.38-1.11-.28-2.62-2.06-2.53-1.44.07-1.57,1.31-2,2.33-1.32,3.42-2.65,3.86-6.57,2.22-1.74-4.88-1.74-4.88-7-4.88s-10.46,0-15.69,0c-1.48,0-3-.18-4.31.8-.82.72-.87,1.74-1.11,2.7-.43,1.75-1.74,2.28-3.37,2.28s-2.88-.5-3.48-2.2c-.45-1.26,0-3.32-2.25-3.25-1.9,0-1.72,1.84-2.1,3-.6,1.91-2,2.48-3.75,2.26a2.76,2.76,0,0,1-2.67-3.34c.36-2.91-1.19-3.18-3.53-3.13S489.25,194.91,486.82,194.18Z" transform="translate(-5.33 -4.38)"/><path class="cls-2" d="M571.9,202.16a24.61,24.61,0,0,0,3,2.78c5.56,3.64,5.67,9.11,5.26,14.84-.21,2.89-2,3.28-4.38,3.28-17,0-33.95,0-50.92,0-14.73,0-29.46-.08-44.18.06-3.66,0-4.35-1.51-4.88-4.84-1.25-7.75,3.49-11.9,8.5-16.12,5.39-1,10.86-.49,16.28-.7,14.76-.57,29.53-.29,44.29-.29,7.94,0,15.84.87,23.77.59C569.73,201.71,570.9,201.4,571.9,202.16Z" transform="translate(-5.33 -4.38)"/><path class="cls-3" d="M380.25,41.31c5.15,0,5.15,0,5.15-5.29,0-9.09-.09-18.18.05-27.27,0-2.65-.85-3.39-3.43-3.37q-25.08.13-50.16,0c-2.59,0-3.49.76-3.42,3.39.17,6-.08,12,.11,17.93.11,3.19-1.28,4.3-4.2,4.16-.62,0-1.25,0-1.87,0" transform="translate(-5.33 -4.38)"/><path class="cls-3" d="M202.33,30.82c-1.72,0-3.87.83-4.9-1.57,1.37.1,2.73.28,4.09.28,40.68,0,81.35,0,122,.09,3.28,0,4.3-.78,4.14-4.11-.28-6.09,0-12.2-.11-18.31,0-2.06.58-2.82,2.74-2.81q26.57.11,53.15,0c2.27,0,2.66,1,2.65,2.91-.07,10.72-.13,21.43,0,32.14,0,2.81-1.1,3.23-3.53,3.22-17.09-.08-34.19,0-51.28,0q-64.93,0-129.88-.07c-3.16,0-4.23.61-4.22,4,.15,30.39.09,60.78.1,91.17,0,1.24.18,2.48.28,3.71-1.47-.77-1-2.17-1-3.33,0-30.89,0-61.78-.1-92.66,0-3.8,1.68-4.2,4.78-4.2" transform="translate(-5.33 -4.38)"/><path class="cls-4" d="M571.9,202.16H484.31c3.28-1.7,6.82-.35,10.19-.84,1.06-.15,3.15.95,2.56-1.72-.37-1.68,1-4.19-2.53-4.26-2.66-.05-5.46.93-8-.69l6,0c2.89,0,6.27-.87,5.5,4.21-.31,2.1,1.81,1.44,3,1.57,1.72.19,2.24-.8,2-2.26-.38-2.74.64-3.78,3.49-3.58,2,.13,2.68.79,2.51,2.66s0,3.29,2.63,3.28,2.74-1.39,2.64-3.29c0-.71-.15-1.51.6-2,1.11,5,4.76,5.14,8.95,5,6.57-.16,13.15-.32,19.72.09,3,.25,6,.79,5.39-4.13-.29-2.25,2.1-1.37,3.4-1.54s2.19.33,2.37,2c.46,4.26,1.48,4.71,5.81,3,.38,2.17,2.1,1.52,3.48,1.71C566.67,201.72,569.45,200.4,571.9,202.16Z" transform="translate(-5.33 -4.38)"/><path class="cls-5" d="M382.45,37.57l-.85,1.16c-.49,1.14-1.5.68-2.29.68q-22.46,0-44.91,0a2.94,2.94,0,0,1-2.14-.42l0,0c-.55-.32-1.09-.7-1.08-1.39.07-9.74-.51-19.48.29-29.21v0a1.8,1.8,0,0,1,.67-.3C348.58,8,365,8,381.41,8.07c.42,0,.67.28,1,.46a.86.86,0,0,0,.06.63A247,247,0,0,1,382.45,37.57Z" transform="translate(-5.33 -4.38)"/><path class="cls-6" d="M455.13,183.48a8,8,0,0,0,5-2.7c1.24-1.31,1.24-2.94,1.24-4.55q0-18.09,0-36.18a9.6,9.6,0,0,0-.42-3.31c-.9-2.44-2.93-3.54-5.39-4a18.63,18.63,0,0,0-5.76.2l-1.05.36a3.6,3.6,0,0,0-1.1.61l-.91.73c-1.45,1.33-1.63,2.94-1.62,4.73,0,8.33,0,16.67,0,25,0,4.47-.08,8.95,0,13.43.06,3.29,2.24,4.95,5.1,5.52a21.75,21.75,0,0,0,2.92.32" transform="translate(-5.33 -4.38)"/><path class="cls-7" d="M503.75,134.83c-1.11-1.45-.36-3.13-.58-4.69-.39-2.59.69-3.42,3.32-3.39,11.47.13,22.94,0,34.41,0,3.37,0,6.75.19,10.1,0,3-.22,4.11.83,3.71,3.77a35,35,0,0,0-.1,4.1c-1.22,1.45-2.92,1.2-4.5,1.21q-21.08,0-42.13,0C506.51,135.82,505,136,503.75,134.83Z" transform="translate(-5.33 -4.38)"/><path class="cls-7" d="M560.45,158.11c0-9.21.11-18.42-.07-27.63,0-2.89.7-3.87,3.72-3.85s3.51.9,3.49,3.64q-.18,27.63,0,55.26c0,2.8-.58,3.83-3.66,3.88-3.34.05-3.55-1.47-3.52-4C560.5,176.28,560.44,167.2,560.45,158.11Z" transform="translate(-5.33 -4.38)"/><path class="cls-7" d="M490.88,158c0-9.34.1-18.68-.07-28,0-2.74.95-3.33,3.45-3.29s3.55.44,3.54,3.26q-.12,28,.14,56c0,3-1.2,3.37-3.75,3.41s-3.4-.77-3.36-3.38C491,176.65,490.88,167.31,490.88,158Z" transform="translate(-5.33 -4.38)"/><path class="cls-8" d="M528.72,121.33c-7.59,0-15.19,0-22.78,0-.91,0-2.15.47-2.6-.79a2.88,2.88,0,0,1,.68-3.09c2.05-2.23,4-3.89,7.55-3.82,13.19.27,26.39.23,39.58,0,3.25,0,3.58,1.27,3.61,3.92s-.46,4-3.63,3.86C543.67,121.16,536.19,121.33,528.72,121.33Z" transform="translate(-5.33 -4.38)"/><path class="cls-8" d="M554.66,182c.07,6.91.07,6.91-6.77,6.91-13.22,0-26.44,0-39.66,0-5.7,0-5,.64-5.06-4.9l0-1.87c1.35-1.44,3.14-1.24,4.88-1.32a173.32,173.32,0,0,1,19.75.23c7.37.52,14.61-.74,21.92-.24C551.44,180.88,553.19,180.77,554.66,182Z" transform="translate(-5.33 -4.38)"/><path class="cls-7" d="M485.08,158c0,5.59-.11,11.18.05,16.77.07,2.43-.93,3-3.07,2.8-2-.21-4.48.7-4.46-2.8q.07-16.75,0-33.52c0-3.55,2.5-2.93,4.69-3.11,2.42-.21,2.88.95,2.83,3.1C485,146.81,485.08,152.4,485.08,158Z" transform="translate(-5.33 -4.38)"/><path class="cls-9" d="M573.42,158c0-5.59.11-11.18,0-16.76-.06-2.35.77-3.08,3-2.89,2,.16,4.48-.54,4.44,2.85,0,3,0,6,0,8.94,0,7.94-.14,15.89.06,23.84.09,3.6-1.93,3.47-4.49,3.66-3.1.23-3-1.45-3-3.62C573.48,168.65,573.42,163.31,573.42,158Z" transform="translate(-5.33 -4.38)"/><path class="cls-10" d="M543.59,143.6c-1.43-5-6.4-6.56-10.07-3.09-1.52,1.44-3,1.49-3.92-.23-1.61-3-3.88-2.93-6.62-2.14s-4.45,2.53-4.25,5.62c-4,0-7.94-.17-11.89.07-2.88.17-4.16-.65-3.72-3.67a22.89,22.89,0,0,0,0-3.7c1.34-1.29,3-.9,4.61-.91q21.29,0,42.58,0c4.82,0,4.86,0,4.75,5,0,1,.56,2.26-.6,3.1Z" transform="translate(-5.33 -4.38)"/><path class="cls-8" d="M543.62,200.36c-1,1.4-2.46,1-3.77,1-6.72,0-13.45-.21-20.16.11-3.77.18-5.36-.88-4.67-4.71a6.74,6.74,0,0,0-.07-1.48c4.37-1.13,8.82-.3,13.22-.49,3.22-.14,6.44,0,9.66,0C543.48,194.72,543.48,194.72,543.62,200.36Z" transform="translate(-5.33 -4.38)"/><path class="cls-11" d="M465.22,114.08v-7.8c-6.46,0-15.61,0-22.07,0l-3.21,0v7.82" transform="translate(-5.33 -4.38)"/><path class="cls-11" d="M461.88,114c-6.34,0-12.68-.07-19,0" transform="translate(-5.33 -4.38)"/><path class="cls-12" d="M554.66,182c-14.57-.08-29.14-.19-43.71-.23-2.61,0-5.24-.38-7.81.36,0-.87,0-1.75,0-2.63,4.51-1.78,9.17-.8,13.77-.68a5.78,5.78,0,0,0,1.81.13c2.48,1.09,5,2.93,7.42-.06,1.61-.16,3.24-.46,4.6.8,3.13,2.18,6,1.93,9.58-.83,4.78-.13,9.62-1.27,14.3.74C554.65,180.36,554.65,181.16,554.66,182Z" transform="translate(-5.33 -4.38)"/><path class="cls-13" d="M518.74,178.91c-5.14,1.74-10.38.72-15.58.55,0-7.26,0-7.26,7.46-7.27,2,0,3.93,0,5.9-.06C516.76,174.55,515.39,177.5,518.74,178.91Z" transform="translate(-5.33 -4.38)"/><path class="cls-11" d="M554.64,179.56q-6.27.1-12.55.19c-.72,0-1.51,0-1.75-.93,1.65-4.13,2.51-4.82,7.41-6.1a3.55,3.55,0,0,0,.93-.61C554.79,172.4,554.79,172.4,554.64,179.56Z" transform="translate(-5.33 -4.38)"/><path class="cls-14" d="M554.43,143.67c.2-7.63.2-7.64-7.37-7.64H507.51a10.67,10.67,0,0,0-4.42.42l.66-1.63,50.86-.21C555.64,137.66,556.26,140.69,554.43,143.67Z" transform="translate(-5.33 -4.38)"/><path class="cls-15" d="M518.27,145.24c-.45.58-.86,1.18-1.73,1.14-5.39-.22-6.34.56-7.67,6.24a3.77,3.77,0,0,1-5.14.18c-1.16-2-.42-4.11-.53-6.16-.08-1.64,1.23-1.62,2.37-1.6Z" transform="translate(-5.33 -4.38)"/><path class="cls-16" d="M509.7,155c3.37,2.67,3.37,2.67-1.41,6.78l-4.48-.22c-.61-.75-.39-1.63-.4-2.47C503.31,153.79,504.7,152.89,509.7,155Z" transform="translate(-5.33 -4.38)"/><path class="cls-17" d="M508.13,163.34c.34,2.53.48,5.14,3.05,6.64a6.38,6.38,0,0,1-7.67.15c-1.41-1.12-.87-4.29-.15-6.34.53-1.51,2.4-.68,3.69-.73A3.92,3.92,0,0,1,508.13,163.34Z" transform="translate(-5.33 -4.38)"/><path class="cls-10" d="M551.05,151.24c-1.26-1.9-2.6-3.26-5.32-2.85-1.83.27-3-1-2.26-3.13a44.8,44.8,0,0,1,10.48,0c.74,1.52.35,3.14.33,4.7C554.23,152.73,553.74,152.89,551.05,151.24Z" transform="translate(-5.33 -4.38)"/><path class="cls-18" d="M472.32,156.32c-.21,1.64.8,3.77-2.43,3.85s-2.8-1.9-2.81-3.86-.43-3.87,2.83-3.8S472.1,154.7,472.32,156.32Z" transform="translate(-5.33 -4.38)"/><path class="cls-3" d="M382.39,8.53c-17-.49-33.93-.23-50.89-.12.95-1.18,2.29-.74,3.48-.74q22,0,44,0C380.16,7.67,381.53,7.18,382.39,8.53Z" transform="translate(-5.33 -4.38)"/><path class="cls-3" d="M332.26,39q21.67-.07,43.36-.15c2,0,4-.08,6-.12-.55,1.43-1.82,1.07-2.88,1.07q-21.87,0-43.75,0C334,39.81,332.94,40,332.26,39Z" transform="translate(-5.33 -4.38)"/><path class="cls-19" d="M548.06,161.58c-.16-1.19,0-2.23,1.31-2.72,2.1-.8,2.53-2.51,2.46-4.49,2.21-.78,3.19.26,2.73,2.29-.41,1.76,1.87,4.82-2.08,5.09A38.6,38.6,0,0,1,548.06,161.58Z" transform="translate(-5.33 -4.38)"/><path class="cls-20" d="M549.61,170.5c.66-2.13,2.56-4.18.46-6.5a2.61,2.61,0,0,1,4.11-.39c1.29,1.65.63,4,.39,6.08-.19,1.57-1.75.92-2.75,1A12.77,12.77,0,0,1,549.61,170.5Z" transform="translate(-5.33 -4.38)"/><path class="cls-3" d="M331.49,8.43q0,13.16,0,26.32c0,1.46-.31,3,.76,4.28-1.37-.06-1.55-1-1.55-2.07,0-9.1,0-18.19.07-27.28C330.8,9.26,331.25,8.84,331.49,8.43Z" transform="translate(-5.33 -4.38)"/><path class="cls-3" d="M382.45,37.57V9.16a2.67,2.67,0,0,1,.72,2.37V35.2A2.67,2.67,0,0,1,382.45,37.57Z" transform="translate(-5.33 -4.38)"/><path class="cls-17" d="M509.7,155l-.74,0c-5.19-.11-5.19-.11-5.17,5.1,0,.49,0,1,0,1.48-1.62-2.25-.49-4.75-.65-7.13,1.91-1.45,3.9-1.17,5.92-.27Z" transform="translate(-5.33 -4.38)"/><path class="cls-21" d="M509.08,154.16l-5.92.27.57-1.63,5.14-.18Z" transform="translate(-5.33 -4.38)"/><path class="cls-19" d="M551.05,151.24c1.89,1.14,3,.87,2.89-1.6,0-1.45,0-2.91,0-4.37,1.92,4.6,1.11,7.28-2.29,7.55C551.28,152.36,550.87,151.91,551.05,151.24Z" transform="translate(-5.33 -4.38)"/><path class="cls-8" d="M528.09,217.58H485.43c-3.42,0-4.9-1.77-3.36-4.82,1.29-2.54,3.14-5,6.74-5q39.1.06,78.21,0c3.74,0,5.61,2.65,7.15,5.17,1.63,2.67.1,4.68-3,4.69Q549.61,217.61,528.09,217.58Z" transform="translate(-5.33 -4.38)"/><path class="cls-19" d="M530.76,179.65c-1.57-.08-3.35,1-4.6-.8C528.18,176.32,529.68,176.79,530.76,179.65Z" transform="translate(-5.33 -4.38)"/><path class="cls-22" d="M539.73,159.34a9.75,9.75,0,1,1-10.06-9.61A9.65,9.65,0,0,1,539.73,159.34Z" transform="translate(-5.33 -4.38)"/><path class="cls-23" d="M530.09,166.62a7.15,7.15,0,1,1,7.06-7.17A7.31,7.31,0,0,1,530.09,166.62Z" transform="translate(-5.33 -4.38)"/><rect class="cls-24" x="497.3" y="120.9" width="52.97" height="63.6"/><rect class="cls-25" x="442.31" y="114.72" width="11.49" height="9.96"/><rect class="cls-25" x="442.18" y="85.33" width="11.49" height="9.96"/><rect class="cls-25" x="193.48" y="141.85" width="240.6" height="19.72"/><rect class="cls-24" x="192.63" y="27.96" width="129.19" height="6.4"/></svg>